# xmcd
#
# Track frame offsets: 
#        150
#        16600
#        33312
#        46875
#        60735
#        77067
#        92440
#        110810
#        129135
#        147285
#        160847
#
# Disc length: 2405 seconds
#
# Revision: 1
# Processed by: cddbd v1.5.2PL0 Copyright (c) Steve Scherf et al.
# Submitted via: ExactAudioCopy v0.99pb5
#
DISCID=7f09630b
DTITLE=Fandango U.S.A. - 10th. Anniversary
DYEAR=1996
DGENRE=Tejano
TTITLE0=Carino Si Tu Te Vas
TTITLE1=Mi Corazon Se Pasa De Bueno Contigo (feat. Maritza)
TTITLE2=La Primera Vez
TTITLE3=Jardin Sin Flores
TTITLE4=Con Que Me Pagas
TTITLE5=Alma Rota
TTITLE6=Soy Un Loco
TTITLE7=Maria
TTITLE8=Tirame Un Besito (feat. Maritza)
TTITLE9=No Tengo Duda
TTITLE10=Fandango Polkas
EXTD=
EXTT0=
EXTT1=
EXTT2=
EXTT3=
EXTT4=
EXTT5=
EXTT6=
EXTT7=
EXTT8=
EXTT9=
EXTT10=
PLAYORDER=
